<?xml version="1.0" standalone="no"?>
<!DOCTYPE svg PUBLIC "-//W3C//DTD SVG 20010904//EN"
 "http://www.w3.org/TR/2001/REC-SVG-20010904/DTD/svg10.dtd">
<svg version="1.0" xmlns="http://www.w3.org/2000/svg"
 width="512.000000pt" height="512.000000pt" viewBox="0 0 512.000000 512.000000"
 preserveAspectRatio="xMidYMid meet">

<g transform="translate(0.000000,512.000000) scale(0.100000,-0.100000)"
fill="#000000" stroke="none">
<path d="M2483 4060 c-279 -29 -538 -190 -691 -428 -80 -126 -162 -349 -162
-442 0 -58 -4 -60 -109 -60 -224 0 -444 -106 -572 -275 l-41 -55 -78 0 c-177
0 -365 -79 -509 -215 -321 -302 -372 -805 -118 -1179 82 -121 240 -249 365
-296 158 -59 -1 -55 1987 -58 1369 -3 1837 0 1890 9 286 48 521 268 607 566
19 65 23 103 23 223 0 173 -13 230 -85 376 -56 115 -152 228 -250 294 l-57 39
-6 143 c-4 114 -10 161 -31 233 -55 185 -145 335 -278 461 -250 235 -585 304
-906 188 -40 -15 -74 -25 -75 -23 -113 176 -191 262 -316 347 -176 119 -385
173 -588 152z m717 -1073 l185 -53 3 -706 2 -707 -37 -10 c-21 -6 -134 -37
-252 -70 l-214 -59 -393 146 c-217 80 -393 147 -391 148 2 2 179 -21 393 -50
214 -30 392 -52 396 -50 5 3 8 284 8 625 0 487 -3 621 -12 624 -7 2 -148 -28
-313 -68 l-300 -73 -3 -420 -2 -421 -133 -51 c-72 -28 -140 -54 -150 -58 -16
-6 -17 20 -15 497 l3 503 455 171 455 171 65 -18 c36 -10 148 -42 250 -71z"/>
</g>
</svg>
